{
  "accessors": [
    {
      "bufferView": 2,
      "componentType": 5126,
      "count": 65532,
      "max": [
        0.32091599702835083,
        0.6356080174446106,
        0.26096999645233154
      ],
      "min": [
        -0.26778900623321533,
        0.32736799120903015,
        -0.3372940123081207
      ],
      "type": "VEC3"
    },
    {
      "bufferView": 2,
      "byteOffset": 786384,
      "componentType": 5126,
      "count": 65532,
      "max": [
        1.0,
        0.9999996423721313,
        1.0
      ],
      "min": [
        -0.9999997019767761,
        -0.9999999403953552,
        -1.0
      ],
      "type": "VEC3"
    },
    {
      "bufferView": 1,
      "componentType": 5126,
      "count": 65532,
      "max": [
        0.9804959893226624,
        0.9996449947357178
      ],
      "min": [
        0.0003549999964889139,
        0.018794000148773193
      ],
      "type": "VEC2"
    },
    {
      "bufferView": 1,
      "byteOffset": 524256,
      "componentType": 5126,
      "count": 65532,
      "max": [
        0.9804959893226624,
        0.9996449947357178
      ],
      "min": [
        0.0003549999964889139,
        0.018794000148773193
      ],
      "type": "VEC2"
    },
    {
      "bufferView": 0,
      "componentType": 5125,
      "count": 312366,
      "type": "SCALAR"
    },
    {
      "bufferView": 2,
      "byteOffset": 1572768,
      "componentType": 5126,
      "count": 65532,
      "max": [
        0.3198370039463043,
        0.5990359783172607,
        0.238427996635437
      ],
      "min": [
        -0.2563549876213074,
        0.32791799306869507,
        -0.3032059967517853
      ],
      "type": "VEC3"
    },
    {
      "bufferView": 2,
      "byteOffset": 2359152,
      "componentType": 5126,
      "count": 65532,
      "max": [
        1.0,
        0.9999996423721313,
        0.9999999403953552
      ],
      "min": [
        -1.0,
        -0.9999999403953552,
        -1.0
      ],
      "type": "VEC3"
    },
    {
      "bufferView": 1,
      "byteOffset": 1048512,
      "componentType": 5126,
      "count": 65532,
      "max": [
        0.9804959893226624,
        0.9996449947357178
      ],
      "min": [
        0.0003549999964889139,
        0.018794000148773193
      ],
      "type": "VEC2"
    },
    {
      "bufferView": 1,
      "byteOffset": 1572768,
      "componentType": 5126,
      "count": 65532,
      "max": [
        0.9804959893226624,
        0.9996449947357178
      ],
      "min": [
        0.0003549999964889139,
        0.018794000148773193
      ],
      "type": "VEC2"
    },
    {
      "bufferView": 0,
      "byteOffset": 1249464,
      "componentType": 5125,
      "count": 299325,
      "type": "SCALAR"
    },
    {
      "bufferView": 2,
      "byteOffset": 3145536,
      "componentType": 5126,
      "count": 65532,
      "max": [
        0.32202398777008057,
        0.6168439984321594,
        0.2609429955482483
      ],
      "min": [
        -0.322052001953125,
        0.33507800102233887,
        -0.3427329957485199
      ],
      "type": "VEC3"
    },
    {
      "bufferView": 2,
      "byteOffset": 3931920,
      "componentType": 5126,
      "count": 65532,
      "max": [
        0.9999996423721313,
        0.9999985694885254,
        1.0
      ],
      "min": [
        -0.9999972581863403,
        -0.9999996423721313,
        -1.0
      ],
      "type": "VEC3"
    },
    {
      "bufferView": 1,
      "byteOffset": 2097024,
      "componentType": 5126,
      "count": 65532,
      "max": [
        0.9804959893226624,
        0.9996449947357178
      ],
      "min": [
        0.0003549999964889139,
        0.01666700839996338
      ],
      "type": "VEC2"
    },
    {
      "bufferView": 1,
      "byteOffset": 2621280,
      "componentType": 5126,
      "count": 65532,
      "max": [
        0.9804959893226624,
        0.9996449947357178
      ],
      "min": [
        0.0003549999964889139,
        0.01666700839996338
      ],
      "type": "VEC2"
    },
    {
      "bufferView": 0,
      "byteOffset": 2446764,
      "componentType": 5125,
      "count": 291678,
      "type": "SCALAR"
    },
    {
      "bufferView": 2,
      "byteOffset": 4718304,
      "componentType": 5126,
      "count": 65532,
      "max": [
        0.3103010058403015,
        0.711135983467102,
        0.3087430000305176
      ],
      "min": [
        -0.25592300295829773,
        0.29591599106788635,
        -0.30701300501823425
      ],
      "type": "VEC3"
    },
    {
      "bufferView": 2,
      "byteOffset": 5504688,
      "componentType": 5126,
      "count": 65532,
      "max": [
        0.9999999403953552,
        0.9999998807907104,
        0.9999998807907104
      ],
      "min": [
        -1.0,
        -0.9999991059303284,
        -1.0
      ],
      "type": "VEC3"
    },
    {
      "bufferView": 1,
      "byteOffset": 3145536,
      "componentType": 5126,
      "count": 65532,
      "max": [
        0.9819149971008301,
        0.9996449947357178
      ],
      "min": [
        0.0003549999964889139,
        0.015248000621795654
      ],
      "type": "VEC2"
    },
    {
      "bufferView": 1,
      "byteOffset": 3669792,
      "componentType": 5126,
      "count": 65532,
      "max": [
        0.9819149971008301,
        0.9996449947357178
      ],
      "min": [
        0.0003549999964889139,
        0.015248000621795654
      ],
      "type": "VEC2"
    },
    {
      "bufferView": 0,
      "byteOffset": 3613476,
      "componentType": 5125,
      "count": 286968,
      "type": "SCALAR"
    },
    {
      "bufferView": 2,
      "byteOffset": 6291072,
      "componentType": 5126,
      "count": 65532,
      "max": [
        0.31033700704574585,
        0.764814019203186,
        0.3246710002422333
      ],
      "min": [
        -0.3195129930973053,
        0.4384239912033081,
        -0.21091799437999725
      ],
      "type": "VEC3"
    },
    {
      "bufferView": 2,
      "byteOffset": 7077456,
      "componentType": 5126,
      "count": 65532,
      "max": [
        0.9999999403953552,
        0.9999999403953552,
        1.0
      ],
      "min": [
        -1.0,
        -0.9999973177909851,
        -0.9999971985816956
      ],
      "type": "VEC3"
    },
    {
      "bufferView": 1,
      "byteOffset": 4194048,
      "componentType": 5126,
      "count": 65532,
      "max": [
        0.9918439984321594,
        0.9996449947357178
      ],
      "min": [
        0.0003549999964889139,
        0.007447004318237305
      ],
      "type": "VEC2"
    },
    {
      "bufferView": 1,
      "byteOffset": 4718304,
      "componentType": 5126,
      "count": 65532,
      "max": [
        0.9918439984321594,
        0.9996449947357178
      ],
      "min": [
        0.0003549999964889139,
        0.007447004318237305
      ],
      "type": "VEC2"
    },
    {
      "bufferView": 0,
      "byteOffset": 4761348,
      "componentType": 5125,
      "count": 300072,
      "type": "SCALAR"
    },
    {
      "bufferView": 2,
      "byteOffset": 7863840,
      "componentType": 5126,
      "count": 65532,
      "max": [
        0.2953599989414215,
        0.7470409870147705,
        0.19380800426006317
      ],
      "min": [
        -0.23243799805641174,
        0.3347809910774231,
        -0.26622501015663147
      ],
      "type": "VEC3"
    },
    {
      "bufferView": 2,
      "byteOffset": 8650224,
      "componentType": 5126,
      "count": 65532,
      "max": [
        1.0,
        0.9999992847442627,
        0.9999806880950928
      ],
      "min": [
        -0.9999999403953552,
        -0.9999996423721313,
        -0.9999999403953552
      ],
      "type": "VEC3"
    },
    {
      "bufferView": 1,
      "byteOffset": 5242560,
      "componentType": 5126,
      "count": 65532,
      "max": [
        0.993261992931366,
        0.9996449947357178
      ],
      "min": [
        0.0003549999964889139,
        0.00602799654006958
      ],
      "type": "VEC2"
    },
    {
      "bufferView": 1,
      "byteOffset": 5766816,
      "componentType": 5126,
      "count": 65532,
      "max": [
        0.993261992931366,
        0.9996449947357178
      ],
      "min": [
        0.0003549999964889139,
        0.00602799654006958
      ],
      "type": "VEC2"
    },
    {
      "bufferView": 0,
      "byteOffset": 5961636,
      "componentType": 5125,
      "count": 281511,
      "type": "SCALAR"
    },
    {
      "bufferView": 2,
      "byteOffset": 9436608,
      "componentType": 5126,
      "count": 65532,
      "max": [
        0.3170819878578186,
        0.7065730094909668,
        0.3249250054359436
      ],
      "min": [
        -0.3076080083847046,
        0.00017699999443721026,
        -0.32513299584388733
      ],
      "type": "VEC3"
    },
    {
      "bufferView": 2,
      "byteOffset": 10222992,
      "componentType": 5126,
      "count": 65532,
      "max": [
        1.0,
        0.9999999403953552,
        0.9999999403953552
      ],
      "min": [
        -0.9999999403953552,
        -0.9999939203262329,
        -0.9999998807907104
      ],
      "type": "VEC3"
    },
    {
      "bufferView": 1,
      "byteOffset": 6291072,
      "componentType": 5126,
      "count": 65532,
      "max": [
        0.995389997959137,
        0.9996449947357178
      ],
      "min": [
        0.0003549999964889139,
        0.0031909942626953125
      ],
      "type": "VEC2"
    },
    {
      "bufferView": 1,
      "byteOffset": 6815328,
      "componentType": 5126,
      "count": 65532,
      "max": [
        0.995389997959137,
        0.9996449947357178
      ],
      "min": [
        0.0003549999964889139,
        0.0031909942626953125
      ],
      "type": "VEC2"
    },
    {
      "bufferView": 0,
      "byteOffset": 7087680,
      "componentType": 5125,
      "count": 301194,
      "type": "SCALAR"
    },
    {
      "bufferView": 2,
      "byteOffset": 11009376,
      "componentType": 5126,
      "count": 65533,
      "max": [
        0.3071869909763336,
        0.8353610038757324,
        0.3253220021724701
      ],
      "min": [
        -0.2791160047054291,
        -0.0,
        -0.3176020085811615
      ],
      "type": "VEC3"
    },
    {
      "bufferView": 2,
      "byteOffset": 11795772,
      "componentType": 5126,
      "count": 65533,
      "max": [
        0.9999997019767761,
        0.9999977350234985,
        1.0
      ],
      "min": [
        -1.0,
        -0.999999463558197,
        -1.0
      ],
      "type": "VEC3"
    },
    {
      "bufferView": 1,
      "byteOffset": 7339584,
      "componentType": 5126,
      "count": 65533,
      "max": [
        0.9982270002365112,
        0.9996449947357178
      ],
      "min": [
        0.0003549999964889139,
        0.0017729997634887695
      ],
      "type": "VEC2"
    },
    {
      "bufferView": 1,
      "byteOffset": 7863848,
      "componentType": 5126,
      "count": 65533,
      "max": [
        0.9982270002365112,
        0.9996449947357178
      ],
      "min": [
        0.0003549999964889139,
        0.0017729997634887695
      ],
      "type": "VEC2"
    },
    {
      "bufferView": 0,
      "byteOffset": 8292456,
      "componentType": 5125,
      "count": 309138,
      "type": "SCALAR"
    },
    {
      "bufferView": 2,
      "byteOffset": 12582168,
      "componentType": 5126,
      "count": 65532,
      "max": [
        0.3076910078525543,
        0.8354799747467041,
        0.3451319932937622
      ],
      "min": [
        -0.32088300585746765,
        0.0011899999808520079,
        -0.30487799644470215
      ],
      "type": "VEC3"
    },
    {
      "bufferView": 2,
      "byteOffset": 13368552,
      "componentType": 5126,
      "count": 65532,
      "max": [
        1.0,
        0.9999980926513672,
        1.0
      ],
      "min": [
        -0.9999999403953552,
        -0.9999989867210388,
        -0.9999963641166687
      ],
      "type": "VEC3"
    },
    {
      "bufferView": 1,
      "byteOffset": 8388112,
      "componentType": 5126,
      "count": 65532,
      "max": [
        0.9996449947357178,
        0.9996449947357178
      ],
      "min": [
        0.0003549999964889139,
        0.00035500526428222656
      ],
      "type": "VEC2"
    },
    {
      "bufferView": 1,
      "byteOffset": 8912368,
      "componentType": 5126,
      "count": 65532,
      "max": [
        0.9996449947357178,
        0.9996449947357178
      ],
      "min": [
        0.0003549999964889139,
        0.00035500526428222656
      ],
      "type": "VEC2"
    },
    {
      "bufferView": 0,
      "byteOffset": 9529008,
      "componentType": 5125,
      "count": 295002,
      "type": "SCALAR"
    },
    {
      "bufferView": 2,
      "byteOffset": 14154936,
      "componentType": 5126,
      "count": 65532,
      "max": [
        0.2909409999847412,
        0.8070020079612732,
        0.28127801418304443
      ],
      "min": [
        -0.2550309896469116,
        0.0006970000104047358,
        -0.30455899238586426
      ],
      "type": "VEC3"
    },
    {
      "bufferView": 2,
      "byteOffset": 14941320,
      "componentType": 5126,
      "count": 65532,
      "max": [
        1.0,
        0.9999998211860657,
        1.0
      ],
      "min": [
        -1.0,
        -1.0,
        -1.0
      ],
      "type": "VEC3"
    },
    {
      "bufferView": 1,
      "byteOffset": 9436624,
      "componentType": 5126,
      "count": 65532,
      "max": [
        0.997518002986908,
        0.9996449947357178
      ],
      "min": [
        0.0003549999964889139,
        0.002481997013092041
      ],
      "type": "VEC2"
    },
    {
      "bufferView": 1,
      "byteOffset": 9960880,
      "componentType": 5126,
      "count": 65532,
      "max": [
        0.997518002986908,
        0.9996449947357178
      ],
      "min": [
        0.0003549999964889139,
        0.002481997013092041
      ],
      "type": "VEC2"
    },
    {
      "bufferView": 0,
      "byteOffset": 10709016,
      "componentType": 5125,
      "count": 302373,
      "type": "SCALAR"
    },
    {
      "bufferView": 2,
      "byteOffset": 15727704,
      "componentType": 5126,
      "count": 65534,
      "max": [
        0.31646400690078735,
        0.7283740043640137,
        0.3228369951248169
      ],
      "min": [
        -0.3129960000514984,
        0.0007190000033006072,
        -0.32537800073623657
      ],
      "type": "VEC3"
    },
    {
      "bufferView": 2,
      "byteOffset": 16514112,
      "componentType": 5126,
      "count": 65534,
      "max": [
        0.9999979138374329,
        0.9999949336051941,
        0.9999998807907104
      ],
      "min": [
        -0.9999999403953552,
        -0.9999999403953552,
        -0.9999992251396179
      ],
      "type": "VEC3"
    },
    {
      "bufferView": 1,
      "byteOffset": 10485136,
      "componentType": 5126,
      "count": 65534,
      "max": [
        0.9918439984321594,
        0.9989359974861145
      ],
      "min": [
        0.0024820000398904085,
        0.00957399606704712
      ],
      "type": "VEC2"
    },
    {
      "bufferView": 1,
      "byteOffset": 11009408,
      "componentType": 5126,
      "count": 65534,
      "max": [
        0.9918439984321594,
        0.9989359974861145
      ],
      "min": [
        0.0024820000398904085,
        0.00957399606704712
      ],
      "type": "VEC2"
    },
    {
      "bufferView": 0,
      "byteOffset": 11918508,
      "componentType": 5125,
      "count": 314211,
      "type": "SCALAR"
    },
    {
      "bufferView": 2,
      "byteOffset": 17300520,
      "componentType": 5126,
      "count": 65532,
      "max": [
        0.32614898681640625,
        0.6869400143623352,
        0.3451409935951233
      ],
      "min": [
        -0.3221539855003357,
        0.33560600876808167,
        -0.3429659903049469
      ],
      "type": "VEC3"
    },
    {
      "bufferView": 2,
      "byteOffset": 18086904,
      "componentType": 5126,
      "count": 65532,
      "max": [
        1.0,
        0.9999988079071045,
        1.0
      ],
      "min": [
        -0.9999998211860657,
        -0.9999969601631165,
        -0.9999929666519165
      ],
      "type": "VEC3"
    },
    {
      "bufferView": 1,
      "byteOffset": 11533680,
      "componentType": 5126,
      "count": 65532,
      "max": [
        0.9897159934043884,
        0.9996449947357178
      ],
      "min": [
        0.0003549999964889139,
        0.010284006595611572
      ],
      "type": "VEC2"
    },
    {
      "bufferView": 1,
      "byteOffset": 12057936,
      "componentType": 5126,
      "count": 65532,
      "max": [
        0.9897159934043884,
        0.9996449947357178
      ],
      "min": [
        0.0003549999964889139,
        0.010284006595611572
      ],
      "type": "VEC2"
    },
    {
      "bufferView": 0,
      "byteOffset": 13175352,
      "componentType": 5125,
      "count": 298272,
      "type": "SCALAR"
    },
    {
      "bufferView": 2,
      "byteOffset": 18873288,
      "componentType": 5126,
      "count": 65532,
      "max": [
        0.3164980113506317,
        0.678646981716156,
        0.3203119933605194
      ],
      "min": [
        -0.252483993768692,
        0.018456999212503433,
        -0.2904289960861206
      ],
      "type": "VEC3"
    },
    {
      "bufferView": 2,
      "byteOffset": 19659672,
      "componentType": 5126,
      "count": 65532,
      "max": [
        0.9999999403953552,
        0.9999844431877136,
        0.9999998807907104
      ],
      "min": [
        -1.0,
        -0.9999958276748657,
        -0.9999998807907104
      ],
      "type": "VEC3"
    },
    {
      "bufferView": 1,
      "byteOffset": 12582192,
      "componentType": 5126,
      "count": 65532,
      "max": [
        0.9882979989051819,
        0.9996449947357178
      ],
      "min": [
        0.0003549999964889139,
        0.012410998344421387
      ],
      "type": "VEC2"
    },
    {
      "bufferView": 1,
      "byteOffset": 13106448,
      "componentType": 5126,
      "count": 65532,
      "max": [
        0.9882979989051819,
        0.9996449947357178
      ],
      "min": [
        0.0003549999964889139,
        0.012410998344421387
      ],
      "type": "VEC2"
    },
    {
      "bufferView": 0,
      "byteOffset": 14368440,
      "componentType": 5125,
      "count": 317967,
      "type": "SCALAR"
    },
    {
      "bufferView": 2,
      "byteOffset": 20446056,
      "componentType": 5126,
      "count": 65532,
      "max": [
        0.2591559886932373,
        0.5791329741477966,
        0.34479400515556335
      ],
      "min": [
        -0.32135799527168274,
        0.18156300485134125,
        -0.29585000872612
      ],
      "type": "VEC3"
    },
    {
      "bufferView": 2,
      "byteOffset": 21232440,
      "componentType": 5126,
      "count": 65532,
      "max": [
        0.9999997615814209,
        1.0,
        1.0
      ],
      "min": [
        -1.0,
        -1.0,
        -1.0
      ],
      "type": "VEC3"
    },
    {
      "bufferView": 1,
      "byteOffset": 13630704,
      "componentType": 5126,
      "count": 65532,
      "max": [
        0.9868789911270142,
        0.9996449947357178
      ],
      "min": [
        0.0003549999964889139,
        0.01312100887298584
      ],
      "type": "VEC2"
    },
    {
      "bufferView": 1,
      "byteOffset": 14154960,
      "componentType": 5126,
      "count": 65532,
      "max": [
        0.9868789911270142,
        0.9996449947357178
      ],
      "min": [
        0.0003549999964889139,
        0.01312100887298584
      ],
      "type": "VEC2"
    },
    {
      "bufferView": 0,
      "byteOffset": 15640308,
      "componentType": 5125,
      "count": 302418,
      "type": "SCALAR"
    },
    {
      "bufferView": 2,
      "byteOffset": 22018824,
      "componentType": 5126,
      "count": 65532,
      "max": [
        0.3219209909439087,
        0.5475630164146423,
        0.3419570028781891
      ],
      "min": [
        -0.31685900688171387,
        0.33121299743652344,
        -0.3226819932460785
      ],
      "type": "VEC3"
    },
    {
      "bufferView": 2,
      "byteOffset": 22805208,
      "componentType": 5126,
      "count": 65532,
      "max": [
        0.9999993443489075,
        0.9999998807907104,
        1.0
      ],
      "min": [
        -0.9999996423721313,
        -0.9999988079071045,
        -1.0
      ],
      "type": "VEC3"
    },
    {
      "bufferView": 1,
      "byteOffset": 14679216,
      "componentType": 5126,
      "count": 65532,
      "max": [
        0.9861699938774109,
        0.9996449947357178
      ],
      "min": [
        0.0003549999964889139,
        0.01312100887298584
      ],
      "type": "VEC2"
    },
    {
      "bufferView": 1,
      "byteOffset": 15203472,
      "componentType": 5126,
      "count": 65532,
      "max": [
        0.9861699938774109,
        0.9996449947357178
      ],
      "min": [
        0.0003549999964889139,
        0.01312100887298584
      ],
      "type": "VEC2"
    },
    {
      "bufferView": 0,
      "byteOffset": 16849980,
      "componentType": 5125,
      "count": 277356,
      "type": "SCALAR"
    },
    {
      "bufferView": 2,
      "byteOffset": 23591592,
      "componentType": 5126,
      "count": 2411,
      "max": [
        -0.11978700011968613,
        0.5893250107765198,
        0.23006199300289154
      ],
      "min": [
        -0.25924399495124817,
        0.47041499614715576,
        -0.14502400159835815
      ],
      "type": "VEC3"
    },
    {
      "bufferView": 2,
      "byteOffset": 23620524,
      "componentType": 5126,
      "count": 2411,
      "max": [
        0.9997037649154663,
        0.9999890923500061,
        0.9999935626983643
      ],
      "min": [
        -0.999999463558197,
        -0.999958336353302,
        -0.9999784231185913
      ],
      "type": "VEC3"
    },
    {
      "bufferView": 1,
      "byteOffset": 15727728,
      "componentType": 5126,
      "count": 2411,
      "max": [
        0.9826239943504333,
        0.9684399962425232
      ],
      "min": [
        0.006738000083714724,
        0.015248000621795654
      ],
      "type": "VEC2"
    },
    {
      "bufferView": 1,
      "byteOffset": 15747016,
      "componentType": 5126,
      "count": 2411,
      "max": [
        0.9826239943504333,
        0.9684399962425232
      ],
      "min": [
        0.006738000083714724,
        0.015248000621795654
      ],
      "type": "VEC2"
    },
    {
      "bufferView": 0,
      "byteOffset": 17959404,
      "componentType": 5125,
      "count": 7923,
      "type": "SCALAR"
    }
  ],
  "asset": {
    "extras": {
      "author": "florenciocristan77 (https://sketchfab.com/florenciocristan77)",
      "license": "CC-BY-4.0 (http://creativecommons.org/licenses/by/4.0/)",
      "source": "https://sketchfab.com/3d-models/japanese-tower-e09244dc5ca84b7b98e9bdbe6ae99c69",
      "title": "Japanese Tower"
    },
    "generator": "Sketchfab-17.15.0",
    "version": "2.0"
  },
  "bufferViews": [
    {
      "buffer": 0,
      "byteLength": 17991096,
      "name": "floatBufferViews",
      "target": 34963
    },
    {
      "buffer": 0,
      "byteLength": 15766304,
      "byteOffset": 17991096,
      "byteStride": 8,
      "name": "floatBufferViews",
      "target": 34962
    },
    {
      "buffer": 0,
      "byteLength": 23649456,
      "byteOffset": 33757400,
      "byteStride": 12,
      "name": "floatBufferViews",
      "target": 34962
    }
  ],
  "buffers": [
    {
      "byteLength": 57406856,
      "uri": "scene.bin"
    }
  ],
  "materials": [
    {
      "doubleSided": true,
      "name": "Material.001",
      "pbrMetallicRoughness": {
        "baseColorFactor": [
          0.8,
          0.8,
          0.8,
          1.0
        ],
        "metallicFactor": 0.0,
        "roughnessFactor": 0.8211145618000169
      }
    }
  ],
  "meshes": [
    {
      "name": "node_0_Material.001_0",
      "primitives": [
        {
          "attributes": {
            "NORMAL": 1,
            "POSITION": 0,
            "TEXCOORD_0": 2,
            "TEXCOORD_1": 3
          },
          "indices": 4,
          "material": 0,
          "mode": 4
        }
      ]
    },
    {
      "name": "node_0_Material.001_0",
      "primitives": [
        {
          "attributes": {
            "NORMAL": 6,
            "POSITION": 5,
            "TEXCOORD_0": 7,
            "TEXCOORD_1": 8
          },
          "indices": 9,
          "material": 0,
          "mode": 4
        }
      ]
    },
    {
      "name": "node_0_Material.001_0",
      "primitives": [
        {
          "attributes": {
            "NORMAL": 11,
            "POSITION": 10,
            "TEXCOORD_0": 12,
            "TEXCOORD_1": 13
          },
          "indices": 14,
          "material": 0,
          "mode": 4
        }
      ]
    },
    {
      "name": "node_0_Material.001_0",
      "primitives": [
        {
          "attributes": {
            "NORMAL": 16,
            "POSITION": 15,
            "TEXCOORD_0": 17,
            "TEXCOORD_1": 18
          },
          "indices": 19,
          "material": 0,
          "mode": 4
        }
      ]
    },
    {
      "name": "node_0_Material.001_0",
      "primitives": [
        {
          "attributes": {
            "NORMAL": 21,
            "POSITION": 20,
            "TEXCOORD_0": 22,
            "TEXCOORD_1": 23
          },
          "indices": 24,
          "material": 0,
          "mode": 4
        }
      ]
    },
    {
      "name": "node_0_Material.001_0",
      "primitives": [
        {
          "attributes": {
            "NORMAL": 26,
            "POSITION": 25,
            "TEXCOORD_0": 27,
            "TEXCOORD_1": 28
          },
          "indices": 29,
          "material": 0,
          "mode": 4
        }
      ]
    },
    {
      "name": "node_0_Material.001_0",
      "primitives": [
        {
          "attributes": {
            "NORMAL": 31,
            "POSITION": 30,
            "TEXCOORD_0": 32,
            "TEXCOORD_1": 33
          },
          "indices": 34,
          "material": 0,
          "mode": 4
        }
      ]
    },
    {
      "name": "node_0_Material.001_0",
      "primitives": [
        {
          "attributes": {
            "NORMAL": 36,
            "POSITION": 35,
            "TEXCOORD_0": 37,
            "TEXCOORD_1": 38
          },
          "indices": 39,
          "material": 0,
          "mode": 4
        }
      ]
    },
    {
      "name": "node_0_Material.001_0",
      "primitives": [
        {
          "attributes": {
            "NORMAL": 41,
            "POSITION": 40,
            "TEXCOORD_0": 42,
            "TEXCOORD_1": 43
          },
          "indices": 44,
          "material": 0,
          "mode": 4
        }
      ]
    },
    {
      "name": "node_0_Material.001_0",
      "primitives": [
        {
          "attributes": {
            "NORMAL": 46,
            "POSITION": 45,
            "TEXCOORD_0": 47,
            "TEXCOORD_1": 48
          },
          "indices": 49,
          "material": 0,
          "mode": 4
        }
      ]
    },
    {
      "name": "node_0_Material.001_0",
      "primitives": [
        {
          "attributes": {
            "NORMAL": 51,
            "POSITION": 50,
            "TEXCOORD_0": 52,
            "TEXCOORD_1": 53
          },
          "indices": 54,
          "material": 0,
          "mode": 4
        }
      ]
    },
    {
      "name": "node_0_Material.001_0",
      "primitives": [
        {
          "attributes": {
            "NORMAL": 56,
            "POSITION": 55,
            "TEXCOORD_0": 57,
            "TEXCOORD_1": 58
          },
          "indices": 59,
          "material": 0,
          "mode": 4
        }
      ]
    },
    {
      "name": "node_0_Material.001_0",
      "primitives": [
        {
          "attributes": {
            "NORMAL": 61,
            "POSITION": 60,
            "TEXCOORD_0": 62,
            "TEXCOORD_1": 63
          },
          "indices": 64,
          "material": 0,
          "mode": 4
        }
      ]
    },
    {
      "name": "node_0_Material.001_0",
      "primitives": [
        {
          "attributes": {
            "NORMAL": 66,
            "POSITION": 65,
            "TEXCOORD_0": 67,
            "TEXCOORD_1": 68
          },
          "indices": 69,
          "material": 0,
          "mode": 4
        }
      ]
    },
    {
      "name": "node_0_Material.001_0",
      "primitives": [
        {
          "attributes": {
            "NORMAL": 71,
            "POSITION": 70,
            "TEXCOORD_0": 72,
            "TEXCOORD_1": 73
          },
          "indices": 74,
          "material": 0,
          "mode": 4
        }
      ]
    },
    {
      "name": "node_0_Material.001_0",
      "primitives": [
        {
          "attributes": {
            "NORMAL": 76,
            "POSITION": 75,
            "TEXCOORD_0": 77,
            "TEXCOORD_1": 78
          },
          "indices": 79,
          "material": 0,
          "mode": 4
        }
      ]
    }
  ],
  "nodes": [
    {
      "children": [
        1
      ],
      "matrix": [
        1.0,
        0.0,
        0.0,
        0.0,
        0.0,
        2.220446049250313e-16,
        -1.0,
        0.0,
        0.0,
        1.0,
        2.220446049250313e-16,
        0.0,
        0.0,
        0.0,
        0.0,
        1.0
      ],
      "name": "Sketchfab_model"
    },
    {
      "children": [
        2
      ],
      "matrix": [
        0.009999999776482582,
        0.0,
        0.0,
        0.0,
        0.0,
        0.0,
        0.009999999776482582,
        0.0,
        0.0,
        -0.009999999776482582,
        0.0,
        0.0,
        0.0,
        0.0,
        0.0,
        1.0
      ],
      "name": "006eb063a72549ec977519b742c91929.fbx"
    },
    {
      "children": [
        3,
        5,
        7,
        10,
        13
      ],
      "name": "RootNode"
    },
    {
      "children": [
        4
      ],
      "matrix": [
        -0.6515580621406576,
        -0.4452714038411621,
        -0.6141704562835514,
        0.0,
        -0.32401352197871774,
        0.8953956406450051,
        -0.30542083145860877,
        0.0,
        0.6859207524392181,
        1.275531577304978e-07,
        -0.7276762476357193,
        0.0,
        7.358891487121582,
        4.958309173583984,
        6.925790786743164,
        1.0
      ],
      "name": "Camera"
    },
    {
      "name": "Object_4"
    },
    {
      "children": [
        6
      ],
      "matrix": [
        -0.6515580498450095,
        -0.4452713384650314,
        -0.6141704196761374,
        0.0,
        -0.3240135072343936,
        0.8953957666971948,
        -0.3054208678676091,
        0.0,
        0.6859207115551618,
        8.666908981823473e-08,
        -0.727676204262835,
        0.0,
        7.358891487121582,
        4.958309173583984,
        6.925790786743164,
        1.0
      ],
      "name": "Camera.001"
    },
    {
      "name": "Object_6"
    },
    {
      "children": [
        8
      ],
      "matrix": [
        -0.29086486743381035,
        -0.05518905125174112,
        -0.9551710828509437,
        0.0,
        0.5663928390969958,
        0.7946724477523929,
        -0.2183912392784541,
        0.0,
        0.7711009936901336,
        -0.6045244363331953,
        -0.1998836246572504,
        0.0,
        4.076245307922363,
        5.903861999511719,
        -1.0054539442062378,
        1.0
      ],
      "name": "Light"
    },
    {
      "children": [
        9
      ],
      "matrix": [
        1.0,
        0.0,
        0.0,
        0.0,
        0.0,
        2.220446049250313e-16,
        1.0,
        0.0,
        0.0,
        -1.0,
        2.220446049250313e-16,
        0.0,
        0.0,
        0.0,
        0.0,
        1.0
      ],
      "name": "Object_8"
    },
    {
      "name": "Object_9"
    },
    {
      "children": [
        11
      ],
      "matrix": [
        -0.2908647308930332,
        -0.05518916005219232,
        -0.9551711181433707,
        0.0,
        0.5663930487614821,
        0.7946723568119757,
        -0.21839129935410295,
        0.0,
        0.7711009159877823,
        -0.6045246082101485,
        -0.19988340459170129,
        0.0,
        4.076245307922363,
        5.903862476348877,
        -1.0054539442062378,
        1.0
      ],
      "name": "Light.001"
    },
    {
      "children": [
        12
      ],
      "matrix": [
        1.0,
        0.0,
        0.0,
        0.0,
        0.0,
        2.220446049250313e-16,
        1.0,
        0.0,
        0.0,
        -1.0,
        2.220446049250313e-16,
        0.0,
        0.0,
        0.0,
        0.0,
        1.0
      ],
      "name": "Object_11"
    },
    {
      "name": "Object_12"
    },
    {
      "children": [
        14,
        15,
        16,
        17,
        18,
        19,
        20,
        21,
        22,
        23,
        24,
        25,
        26,
        27,
        28,
        29
      ],
      "matrix": [
        3.66328344347977,
        -2.1570251611478182e-17,
        -0.10197159727882112,
        0.0,
        5.454721017408587e-09,
        4.484741687774654,
        1.9595838084696917e-07,
        0.0,
        0.10061380044179909,
        -1.580562399161194e-07,
        3.61450520713351,
        0.0,
        0.0,
        0.0,
        0.0,
        1.0
      ],
      "name": "node_0"
    },
    {
      "mesh": 0,
      "name": "node_0_Material.001_0"
    },
    {
      "mesh": 1,
      "name": "node_0_Material.001_0"
    },
    {
      "mesh": 2,
      "name": "node_0_Material.001_0"
    },
    {
      "mesh": 3,
      "name": "node_0_Material.001_0"
    },
    {
      "mesh": 4,
      "name": "node_0_Material.001_0"
    },
    {
      "mesh": 5,
      "name": "node_0_Material.001_0"
    },
    {
      "mesh": 6,
      "name": "node_0_Material.001_0"
    },
    {
      "mesh": 7,
      "name": "node_0_Material.001_0"
    },
    {
      "mesh": 8,
      "name": "node_0_Material.001_0"
    },
    {
      "mesh": 9,
      "name": "node_0_Material.001_0"
    },
    {
      "mesh": 10,
      "name": "node_0_Material.001_0"
    },
    {
      "mesh": 11,
      "name": "node_0_Material.001_0"
    },
    {
      "mesh": 12,
      "name": "node_0_Material.001_0"
    },
    {
      "mesh": 13,
      "name": "node_0_Material.001_0"
    },
    {
      "mesh": 14,
      "name": "node_0_Material.001_0"
    },
    {
      "mesh": 15,
      "name": "node_0_Material.001_0"
    }
  ],
  "scene": 0,
  "scenes": [
    {
      "name": "Sketchfab_Scene",
      "nodes": [
        0
      ]
    }
  ]
}
