{
  "accessors": [
    {
      "bufferView": 2,
      "componentType": 5126,
      "count": 65532,
      "max": [
        0.24745899438858032,
        0.22030389308929443,
        0.0
      ],
      "min": [
        -0.23756490647792816,
        -0.22022399306297302,
        -0.5991979837417603
      ],
      "type": "VEC3"
    },
    {
      "bufferView": 2,
      "byteOffset": 786384,
      "componentType": 5126,
      "count": 65532,
      "max": [
        0.9999991655349731,
        0.9999998807907104,
        0.9999933242797852
      ],
      "min": [
        -1.0,
        -0.9999998807907104,
        -0.9998594522476196
      ],
      "type": "VEC3"
    },
    {
      "bufferView": 1,
      "componentType": 5126,
      "count": 65532,
      "max": [
        0.9990649819374084,
        0.9991999864578247
      ],
      "min": [
        0.00030499999411404133,
        0.06262201070785522
      ],
      "type": "VEC2"
    },
    {
      "bufferView": 1,
      "byteOffset": 524256,
      "componentType": 5126,
      "count": 65532,
      "max": [
        0.9990649819374084,
        0.9991999864578247
      ],
      "min": [
        0.00030499999411404133,
        0.06262201070785522
      ],
      "type": "VEC2"
    },
    {
      "bufferView": 1,
      "byteOffset": 1048512,
      "componentType": 5126,
      "count": 65532,
      "max": [
        0.9990649819374084,
        0.9991999864578247
      ],
      "min": [
        0.00030499999411404133,
        0.06262201070785522
      ],
      "type": "VEC2"
    },
    {
      "bufferView": 0,
      "componentType": 5125,
      "count": 288903,
      "type": "SCALAR"
    },
    {
      "bufferView": 2,
      "byteOffset": 1572768,
      "componentType": 5126,
      "count": 65532,
      "max": [
        0.2467309981584549,
        0.21906550228595734,
        0.0
      ],
      "min": [
        -0.23756490647792816,
        -0.2201194018125534,
        -0.5758339762687683
      ],
      "type": "VEC3"
    },
    {
      "bufferView": 2,
      "byteOffset": 2359152,
      "componentType": 5126,
      "count": 65532,
      "max": [
        0.9999991655349731,
        0.9999996423721313,
        0.999997615814209
      ],
      "min": [
        -0.9999998807907104,
        -0.9999988079071045,
        -0.9999209046363831
      ],
      "type": "VEC3"
    },
    {
      "bufferView": 1,
      "byteOffset": 1572768,
      "componentType": 5126,
      "count": 65532,
      "max": [
        0.9993829727172852,
        0.9993839859962463
      ],
      "min": [
        0.00030499999411404133,
        0.0720829963684082
      ],
      "type": "VEC2"
    },
    {
      "bufferView": 1,
      "byteOffset": 2097024,
      "componentType": 5126,
      "count": 65532,
      "max": [
        0.9993829727172852,
        0.9993839859962463
      ],
      "min": [
        0.00030499999411404133,
        0.0720829963684082
      ],
      "type": "VEC2"
    },
    {
      "bufferView": 1,
      "byteOffset": 2621280,
      "componentType": 5126,
      "count": 65532,
      "max": [
        0.9993829727172852,
        0.9993839859962463
      ],
      "min": [
        0.00030499999411404133,
        0.0720829963684082
      ],
      "type": "VEC2"
    },
    {
      "bufferView": 0,
      "byteOffset": 1155612,
      "componentType": 5125,
      "count": 254502,
      "type": "SCALAR"
    },
    {
      "bufferView": 2,
      "byteOffset": 3145536,
      "componentType": 5126,
      "count": 65532,
      "max": [
        0.24745899438858032,
        0.21821899712085724,
        -0.0
      ],
      "min": [
        -0.23465749621391296,
        -0.2190881073474884,
        -0.5990819931030273
      ],
      "type": "VEC3"
    },
    {
      "bufferView": 2,
      "byteOffset": 3931920,
      "componentType": 5126,
      "count": 65532,
      "max": [
        0.9999991655349731,
        0.9999996423721313,
        0.999976396560669
      ],
      "min": [
        -0.9999927282333374,
        -0.9999996423721313,
        -0.9996437430381775
      ],
      "type": "VEC3"
    },
    {
      "bufferView": 1,
      "byteOffset": 3145536,
      "componentType": 5126,
      "count": 65532,
      "max": [
        0.9993389844894409,
        0.9993820190429688
      ],
      "min": [
        0.00030499999411404133,
        0.07550102472305298
      ],
      "type": "VEC2"
    },
    {
      "bufferView": 1,
      "byteOffset": 3669792,
      "componentType": 5126,
      "count": 65532,
      "max": [
        0.9993389844894409,
        0.9993820190429688
      ],
      "min": [
        0.00030499999411404133,
        0.07550102472305298
      ],
      "type": "VEC2"
    },
    {
      "bufferView": 1,
      "byteOffset": 4194048,
      "componentType": 5126,
      "count": 65532,
      "max": [
        0.9993389844894409,
        0.9993820190429688
      ],
      "min": [
        0.00030499999411404133,
        0.07550102472305298
      ],
      "type": "VEC2"
    },
    {
      "bufferView": 0,
      "byteOffset": 2173620,
      "componentType": 5125,
      "count": 266574,
      "type": "SCALAR"
    },
    {
      "bufferView": 2,
      "byteOffset": 4718304,
      "componentType": 5126,
      "count": 19198,
      "max": [
        0.2207449972629547,
        0.1978590041399002,
        -0.09660500288009644
      ],
      "min": [
        -0.0808510035276413,
        -0.20171800255775452,
        -0.5769129991531372
      ],
      "type": "VEC3"
    },
    {
      "bufferView": 2,
      "byteOffset": 4948680,
      "componentType": 5126,
      "count": 19198,
      "max": [
        0.9999992847442627,
        0.9999982118606567,
        0.999976396560669
      ],
      "min": [
        -0.9993841648101807,
        -0.9999977350234985,
        -0.998062014579773
      ],
      "type": "VEC3"
    },
    {
      "bufferView": 1,
      "byteOffset": 4718304,
      "componentType": 5126,
      "count": 19198,
      "max": [
        0.995173990726471,
        0.9989449977874756
      ],
      "min": [
        0.00030499999411404133,
        0.08996599912643433
      ],
      "type": "VEC2"
    },
    {
      "bufferView": 1,
      "byteOffset": 4871888,
      "componentType": 5126,
      "count": 19198,
      "max": [
        0.995173990726471,
        0.9989449977874756
      ],
      "min": [
        0.00030499999411404133,
        0.08996599912643433
      ],
      "type": "VEC2"
    },
    {
      "bufferView": 1,
      "byteOffset": 5025472,
      "componentType": 5126,
      "count": 19198,
      "max": [
        0.995173990726471,
        0.9989449977874756
      ],
      "min": [
        0.00030499999411404133,
        0.08996599912643433
      ],
      "type": "VEC2"
    },
    {
      "bufferView": 0,
      "byteOffset": 3239916,
      "componentType": 5125,
      "count": 70989,
      "type": "SCALAR"
    }
  ],
  "asset": {
    "extras": {
      "author": "BENA-3DSolution (https://sketchfab.com/BENA-ArchitecturalModeling)",
      "license": "SKETCHFAB Standard (https://sketchfab.com/licenses)",
      "source": "https://sketchfab.com/3d-models/3dscan-edo-castle-944e48f240cc449abb5ecc969051b155",
      "title": "【3DScan】江戸城　寛永度天守閣   Edo Castle"
    },
    "generator": "Sketchfab-0.3.0",
    "version": "2.0"
  },
  "bufferViews": [
    {
      "buffer": 0,
      "byteLength": 3523872,
      "name": "floatBufferViews",
      "target": 34963
    },
    {
      "buffer": 0,
      "byteLength": 5179056,
      "byteOffset": 3523872,
      "byteStride": 8,
      "name": "floatBufferViews",
      "target": 34962
    },
    {
      "buffer": 0,
      "byteLength": 5179056,
      "byteOffset": 8702928,
      "byteStride": 12,
      "name": "floatBufferViews",
      "target": 34962
    }
  ],
  "buffers": [
    {
      "byteLength": 13881984,
      "uri": "scene.bin"
    }
  ],
  "extensionsUsed": [
    "KHR_materials_unlit"
  ],
  "images": [
    {
      "uri": "textures/material_baseColor.png"
    }
  ],
  "materials": [
    {
      "doubleSided": true,
      "extensions": {
        "KHR_materials_unlit": {}
      },
      "name": "material",
      "pbrMetallicRoughness": {
        "baseColorTexture": {
          "index": 0
        },
        "metallicFactor": 0.0
      }
    }
  ],
  "meshes": [
    {
      "name": "Object_0",
      "primitives": [
        {
          "attributes": {
            "NORMAL": 1,
            "POSITION": 0,
            "TEXCOORD_0": 2,
            "TEXCOORD_1": 3,
            "TEXCOORD_2": 4
          },
          "indices": 5,
          "material": 0,
          "mode": 4
        }
      ]
    },
    {
      "name": "Object_1",
      "primitives": [
        {
          "attributes": {
            "NORMAL": 7,
            "POSITION": 6,
            "TEXCOORD_0": 8,
            "TEXCOORD_1": 9,
            "TEXCOORD_2": 10
          },
          "indices": 11,
          "material": 0,
          "mode": 4
        }
      ]
    },
    {
      "name": "Object_2",
      "primitives": [
        {
          "attributes": {
            "NORMAL": 13,
            "POSITION": 12,
            "TEXCOORD_0": 14,
            "TEXCOORD_1": 15,
            "TEXCOORD_2": 16
          },
          "indices": 17,
          "material": 0,
          "mode": 4
        }
      ]
    },
    {
      "name": "Object_3",
      "primitives": [
        {
          "attributes": {
            "NORMAL": 19,
            "POSITION": 18,
            "TEXCOORD_0": 20,
            "TEXCOORD_1": 21,
            "TEXCOORD_2": 22
          },
          "indices": 23,
          "material": 0,
          "mode": 4
        }
      ]
    }
  ],
  "nodes": [
    {
      "children": [
        1
      ],
      "matrix": [
        1.0,
        0.0,
        0.0,
        0.0,
        0.0,
        2.220446049250313e-16,
        -1.0,
        0.0,
        0.0,
        1.0,
        2.220446049250313e-16,
        0.0,
        0.0,
        0.0,
        0.0,
        1.0
      ],
      "name": "Sketchfab_model"
    },
    {
      "children": [
        2
      ],
      "name": "root"
    },
    {
      "children": [
        3
      ],
      "matrix": [
        1.0,
        0.0,
        0.0,
        0.0,
        0.0,
        2.220446049250313e-16,
        1.0,
        0.0,
        0.0,
        -1.0,
        2.220446049250313e-16,
        0.0,
        0.0,
        0.0,
        0.0,
        1.0
      ],
      "name": "GLTF_SceneRootNode"
    },
    {
      "children": [
        4,
        5,
        6,
        7
      ],
      "matrix": [
        1.0,
        0.0,
        0.0,
        0.0,
        0.0,
        0.0,
        1.0,
        0.0,
        0.0,
        -1.0,
        0.0,
        0.0,
        0.0,
        0.0,
        0.0,
        1.0
      ],
      "name": "refine__0"
    },
    {
      "mesh": 0,
      "name": "Object_4"
    },
    {
      "mesh": 1,
      "name": "Object_5"
    },
    {
      "mesh": 2,
      "name": "Object_6"
    },
    {
      "mesh": 3,
      "name": "Object_7"
    }
  ],
  "samplers": [
    {
      "magFilter": 9729,
      "minFilter": 9987,
      "wrapS": 10497,
      "wrapT": 10497
    }
  ],
  "scene": 0,
  "scenes": [
    {
      "name": "Sketchfab_Scene",
      "nodes": [
        0
      ]
    }
  ],
  "textures": [
    {
      "sampler": 0,
      "source": 0
    }
  ]
}
